<svg xmlns="http://www.w3.org/2000/svg" viewBox="0 0 24 24" fill="none">
  <style>
    .hull { fill: #185cc4; } .line { stroke: #185cc4; } .wave { stroke: #3881f6; }
    @media (prefers-color-scheme: dark) { .hull { fill: #6ea4fb; } .line { stroke: #6ea4fb; } .wave { stroke: #6ea4fb; } }
  </style>
  <path class="hull" d="M4 13.5h16l-2.2 4.2a2 2 0 0 1-1.77 1.07H7.97A2 2 0 0 1 6.2 17.7L4 13.5Z"/>
  <path class="line" d="M7.5 13.5V9.25c0-.69.56-1.25 1.25-1.25h6.5c.69 0 1.25.56 1.25 1.25v4.25" stroke-width="1.8" stroke-linejoin="round"/>
  <path class="line" d="M12 8V4.5" stroke-width="1.8" stroke-linecap="round"/>
  <path class="wave" d="M3 21.25c1.5 0 1.5-.9 3-.9s1.5.9 3 .9 1.5-.9 3-.9 1.5.9 3 .9 1.5-.9 3-.9 1.5.9 3 .9" stroke-width="1.5" stroke-linecap="round" opacity=".55"/>
</svg>
